<?xml version="1.0" encoding="UTF-8" standalone="no"?>
<!DOCTYPE svg PUBLIC "-//W3C//DTD SVG 1.1//EN" "http://www.w3.org/Graphics/SVG/1.1/DTD/svg11.dtd">
<!-- Created with Vectornator (http://vectornator.io/) -->
<svg height="1024.0px" stroke-miterlimit="10" style="fill-rule:nonzero;clip-rule:evenodd;stroke-linecap:round;stroke-linejoin:round;" version="1.1" viewBox="0 0 1024 1024" width="1024.0px" xml:space="preserve" xmlns="http://www.w3.org/2000/svg" xmlns:xlink="http://www.w3.org/1999/xlink">
<defs/>
<g id="wax">
<path d="M558.831 33.211C304.377 33.211 96.3482 231.716 81.0146 482.312L288.199 482.312C302.987 345.913 418.501 239.735 558.831 239.735C668.745 239.735 763.366 304.918 806.362 398.69L1024 398.69C973.092 188.975 784.21 33.211 558.831 33.211ZM81.0146 541.655C96.3472 792.255 304.376 990.789 558.831 990.789C784.215 990.794 973.102 835.01 1024 625.275L806.362 625.275C763.366 719.049 668.745 784.233 558.831 784.233C418.501 784.233 302.987 678.054 288.199 541.655L81.0146 541.655ZM1.13687e-13 498.859L382.373 498.859L382.373 525.118L1.13687e-13 525.118L1.13687e-13 498.859Z" fill="#f89022" fill-rule="nonzero" opacity="1" stroke="none"/>
</g>
</svg>
