<?xml version="1.0" encoding="UTF-8" standalone="no"?>
<!DOCTYPE svg PUBLIC "-//W3C//DTD SVG 1.1//EN" "http://www.w3.org/Graphics/SVG/1.1/DTD/svg11.dtd">
<!-- Created with Vectornator (http://vectornator.io/) -->
<svg height="100%" stroke-miterlimit="10" style="fill-rule:nonzero;clip-rule:evenodd;stroke-linecap:round;stroke-linejoin:round;" version="1.1" viewBox="0 0 1110 1110" width="100%" xml:space="preserve" xmlns="http://www.w3.org/2000/svg" xmlns:xlink="http://www.w3.org/1999/xlink">
<defs>
<linearGradient gradientTransform="matrix(1 0 0 1 0 0)" gradientUnits="userSpaceOnUse" id="LinearGradient" x1="32.6747" x2="1074.93" y1="553.03" y2="553.03">
<stop offset="0" stop-color="#43ffb6"/>
<stop offset="0.584578" stop-color="#6492cc" stop-opacity="0.866967"/>
<stop offset="0.832215" stop-color="#913ac4" stop-opacity="0.681938"/>
<stop offset="1" stop-color="#913ac4"/>
</linearGradient>
<linearGradient gradientTransform="matrix(1 0 0 1 0 0)" gradientUnits="userSpaceOnUse" id="LinearGradient_2" x1="33.7016" x2="1065.06" y1="547.566" y2="547.566">
<stop offset="0" stop-color="#43ffb6"/>
<stop offset="0.584578" stop-color="#6492cc" stop-opacity="0.866967"/>
<stop offset="0.832215" stop-color="#913ac4" stop-opacity="0.681938"/>
<stop offset="1" stop-color="#913ac4"/>
</linearGradient>
</defs>
<g id="Layer-1">
<path d="M202.464 31.9138C121.956 31.9138 54.6697 87.9966 37.2149 163.194C84.92 163.389 123.532 202.089 123.532 249.84C123.532 297.71 84.7302 336.512 36.8593 336.512C35.4462 336.512 34.0713 336.36 32.6747 336.293L32.6747 904.383C32.6749 986.379 90.8169 1054.79 168.113 1070.67L168.113 947.405L250.847 947.405L250.847 1074.15L856.789 1074.15L856.789 947.405L939.496 947.405L939.496 1070.67C1016.8 1054.8 1074.93 986.388 1074.93 904.383L1074.93 336.293C1073.55 336.359 1072.18 336.512 1070.78 336.512C1022.91 336.512 984.104 297.71 984.104 249.84C984.104 202.098 1022.7 163.403 1070.39 163.194C1052.94 87.9966 985.679 31.9138 905.171 31.9138L202.464 31.9138Z" fill="#2a2e39" fill-rule="nonzero" opacity="1" stroke="#2a2e39" stroke-linecap="butt" stroke-linejoin="round" stroke-width="60"/>
<path d="M202.464 31.9138C121.956 31.9138 54.6697 87.9966 37.2149 163.194C84.92 163.389 123.532 202.089 123.532 249.84C123.532 297.71 84.7302 336.512 36.8593 336.512C35.4462 336.512 34.0713 336.36 32.6747 336.293L32.6747 904.383C32.6749 986.379 90.8169 1054.79 168.113 1070.67L168.113 947.405L250.847 947.405L250.847 1074.15L856.789 1074.15L856.789 947.405L939.496 947.405L939.496 1070.67C1016.8 1054.8 1074.93 986.388 1074.93 904.383L1074.93 336.293C1073.55 336.359 1072.18 336.512 1070.78 336.512C1022.91 336.512 984.104 297.71 984.104 249.84C984.104 202.098 1022.7 163.403 1070.39 163.194C1052.94 87.9966 985.679 31.9138 905.171 31.9138L202.464 31.9138Z" fill="url(#LinearGradient)" fill-rule="nonzero" opacity="0" stroke="none"/>
<path d="M241.659 917.129L861.997 917.129L861.997 1056.71L241.659 1056.71L241.659 917.129Z" fill="#2a2d38" fill-rule="nonzero" opacity="0" stroke="none"/>
<path d="M356.317 904.935L356.317 824.335C356.317 819.065 355.956 813.226 355.232 806.82C354.509 800.413 352.83 794.239 350.195 788.297C347.56 782.355 343.633 777.473 338.415 773.65C333.197 769.826 326.144 767.915 317.257 767.915C312.504 767.915 307.802 768.69 303.152 770.24C298.502 771.79 294.292 774.45 290.52 778.222C286.748 781.994 283.726 787.16 281.452 793.722C279.179 800.284 278.042 808.68 278.042 818.91L255.877 809.455C255.877 795.195 258.642 782.278 264.17 770.705C269.698 759.131 277.836 749.909 288.582 743.037C299.329 736.165 312.556 732.73 328.262 732.73C340.662 732.73 350.892 734.796 358.952 738.93C367.012 743.063 373.419 748.333 378.172 754.74C382.926 761.146 386.439 767.966 388.712 775.2C390.986 782.433 392.458 789.279 393.13 795.737C393.802 802.195 394.137 807.44 394.137 811.47L394.137 904.935L356.317 904.935ZM240.222 904.935L240.222 737.535L273.547 737.535L273.547 789.46L278.042 789.46L278.042 904.935L240.222 904.935ZM483.737 909.585C466.997 909.585 452.375 905.813 439.872 898.27C427.369 890.726 417.681 880.315 410.809 867.037C403.938 853.759 400.502 838.491 400.502 821.235C400.502 803.668 404.015 788.271 411.042 775.045C418.069 761.818 427.834 751.485 440.337 744.045C452.84 736.605 467.307 732.885 483.737 732.885C500.58 732.885 515.254 736.656 527.757 744.2C540.26 751.743 549.974 762.154 556.897 775.432C563.82 788.71 567.282 803.978 567.282 821.235C567.282 838.595 563.794 853.914 556.819 867.192C549.844 880.47 540.105 890.855 527.602 898.347C515.099 905.839 500.477 909.585 483.737 909.585ZM483.737 874.555C498.617 874.555 509.674 869.595 516.907 859.675C524.14 849.755 527.757 836.941 527.757 821.235C527.757 805.011 524.089 792.069 516.752 782.407C509.415 772.745 498.41 767.915 483.737 767.915C473.714 767.915 465.473 770.162 459.014 774.657C452.556 779.152 447.777 785.404 444.677 793.412C441.577 801.42 440.027 810.695 440.027 821.235C440.027 837.458 443.721 850.4 451.109 860.062C458.498 869.724 469.374 874.555 483.737 874.555ZM646.548 909.585C631.152 909.585 617.718 905.71 606.248 897.96C594.778 890.21 585.892 879.67 579.588 866.34C573.285 853.01 570.133 837.975 570.133 821.235C570.133 804.288 573.311 789.175 579.666 775.897C586.021 762.619 595.037 752.13 606.713 744.432C618.39 736.734 632.133 732.885 647.943 732.885C663.857 732.885 677.212 736.734 688.011 744.432C698.809 752.13 706.998 762.645 712.578 775.975C718.158 789.305 720.948 804.391 720.948 821.235C720.948 837.871 718.158 852.88 712.578 866.262C706.998 879.644 698.68 890.21 687.623 897.96C676.567 905.71 662.875 909.585 646.548 909.585ZM652.283 876.105C662.307 876.105 670.392 873.805 676.541 869.207C682.689 864.609 687.184 858.176 690.026 849.91C692.867 841.643 694.288 832.085 694.288 821.235C694.288 810.281 692.867 800.697 690.026 792.482C687.184 784.267 682.767 777.86 676.773 773.262C670.78 768.664 663.03 766.365 653.523 766.365C643.5 766.365 635.233 768.819 628.723 773.727C622.213 778.635 617.408 785.249 614.308 793.567C611.208 801.885 609.658 811.108 609.658 821.235C609.658 831.465 611.182 840.739 614.231 849.057C617.279 857.375 621.955 863.963 628.258 868.82C634.562 873.676 642.57 876.105 652.283 876.105ZM694.288 904.935L694.288 787.445L689.638 787.445L689.638 681.735L727.303 681.735L727.303 904.935L694.288 904.935ZM824.756 909.585C807.81 909.585 792.93 905.916 780.116 898.58C767.303 891.243 757.306 881.065 750.124 868.045C742.942 855.025 739.351 840.041 739.351 823.095C739.351 804.805 742.865 788.917 749.891 775.432C756.918 761.947 766.683 751.485 779.186 744.045C791.69 736.605 806.156 732.885 822.586 732.885C839.946 732.885 854.697 736.94 866.839 745.052C878.981 753.164 887.996 764.608 893.886 779.385C899.776 794.161 901.998 811.573 900.551 831.62L863.506 831.62L863.506 817.98C863.403 799.793 860.2 786.515 853.896 778.145C847.593 769.775 837.673 765.59 824.136 765.59C808.843 765.59 797.476 770.317 790.036 779.772C782.596 789.227 778.876 803.048 778.876 821.235C778.876 838.181 782.596 851.305 790.036 860.605C797.476 869.905 808.326 874.555 822.586 874.555C831.783 874.555 839.714 872.514 846.379 868.432C853.044 864.35 858.185 858.435 861.801 850.685L898.691 861.845C892.285 876.931 882.391 888.66 869.009 897.03C855.627 905.4 840.876 909.585 824.756 909.585ZM767.096 831.62L767.096 803.41L882.261 803.41L882.261 831.62L767.096 831.62ZM748.219 950.938L748.219 1067.44L788.219 1067.44L788.219 950.938L748.219 950.938ZM375.938 950.938L375.938 1067.44L415.938 1067.44L415.938 950.938L375.938 950.938ZM562.062 950.938L562.062 1067.44L602.062 1067.44L602.062 950.938L562.062 950.938ZM624.125 950.938L624.125 1067.44L664.125 1067.44L664.125 950.938L624.125 950.938ZM313.875 950.938L313.875 1067.44L353.875 1067.44L353.875 950.938L313.875 950.938ZM437.969 950.938L437.969 1067.44L477.969 1067.44L477.969 950.938L437.969 950.938ZM500.031 950.938L500.031 1067.44L540.031 1067.44L540.031 950.938L500.031 950.938ZM810.281 950.938L810.281 1067.44L850.281 1067.44L850.281 950.938L810.281 950.938ZM686.188 950.938L686.188 1067.44L726.188 1067.44L726.188 950.938L686.188 950.938ZM251.812 950.938L251.812 1067.44L291.812 1067.44L291.812 950.938L251.812 950.938ZM168.094 463C162.571 463 158.094 467.477 158.094 473L158.094 836.469C158.094 841.992 162.571 846.469 168.094 846.469C169.202 846.469 196.827 846.469 202.812 846.469C208.335 846.469 212.812 841.991 212.812 836.469C212.812 830.946 208.335 826.469 202.812 826.469C198.551 826.469 186.911 826.469 178.094 826.469L178.094 473C178.094 467.477 173.617 463 168.094 463ZM830.344 465.969C824.821 465.969 820.344 470.446 820.344 475.969C820.344 481.492 824.821 485.969 830.344 485.969C832.425 485.969 943.048 485.969 960.781 485.969L960.781 826.469C949.681 826.469 928.816 826.469 922.156 826.469C916.633 826.469 912.156 830.946 912.156 836.469C912.156 841.992 916.633 846.469 922.156 846.469C930.541 846.469 969.229 846.469 970.781 846.469C976.304 846.469 980.781 841.991 980.781 836.469L980.781 475.969C980.781 470.446 976.304 465.969 970.781 465.969C969.682 465.969 832.584 465.969 830.344 465.969ZM497.692 91.3489C334.674 91.3489 201.398 218.523 191.574 379.07L324.309 379.07C333.783 291.684 407.788 223.661 497.692 223.66C568.11 223.66 628.73 265.421 656.276 325.497L795.707 325.497C763.092 191.141 642.083 91.3489 497.692 91.3489ZM191.574 417.088C201.397 577.638 334.673 704.831 497.692 704.831C642.087 704.834 763.099 605.03 795.707 470.661L656.276 470.661C628.73 530.738 568.11 572.498 497.692 572.498C407.788 572.498 333.783 504.474 324.309 417.088L191.574 417.088ZM139.671 389.671L384.643 389.671L384.643 406.494L139.671 406.494L139.671 389.671ZM1027.75 829.375C1007.14 829.375 990.437 846.081 990.438 866.688C990.438 887.294 1007.14 904 1027.75 904C1048.36 904 1065.06 887.294 1065.06 866.688C1065.06 846.081 1048.36 829.375 1027.75 829.375ZM1027.75 849.375C1037.31 849.375 1045.06 857.126 1045.06 866.688C1045.06 876.249 1037.31 884 1027.75 884C1018.19 884 1010.44 876.249 1010.44 866.688C1010.44 857.126 1018.19 849.375 1027.75 849.375ZM176.264 27.6948C103.146 36.7288 44.9705 93.5115 33.7016 165.914L84.4829 165.914C94.6336 121.173 130.798 86.3763 176.264 78.226L176.264 27.6948ZM920.613 27.6948C993.731 36.7288 1051.91 93.5115 1063.18 165.914L1012.39 165.914C1002.24 121.173 966.08 86.3763 920.613 78.226L920.613 27.6948ZM176.264 1066.42C103.146 1057.39 44.9705 1000.61 33.7016 928.204L84.4829 928.204C94.6336 972.945 130.798 1007.74 176.264 1015.89L176.264 1066.42Z" fill="url(#LinearGradient_2)" fill-rule="nonzero" opacity="1" stroke="none"/>
</g>
</svg>
